<svg width="36" height="37" viewBox="0 0 36 37" fill="none" xmlns="http://www.w3.org/2000/svg">
<path d="M10.5852 0.5C4.77486 0.5 0 5.26847 0 11.0852V25.9148C0 31.7251 4.76847 36.5 10.5852 36.5H25.4148C31.2251 36.5 36 31.7315 36 25.9148V11.0852C36 5.27486 31.2315 0.5 25.4148 0.5H10.5852ZM10.5852 3.77273H25.4148C29.4609 3.77273 32.7273 7.03906 32.7273 11.0852V25.9148C32.7273 29.9609 29.4609 33.2273 25.4148 33.2273H10.5852C6.53906 33.2273 3.27273 29.9609 3.27273 25.9148V11.0852C3.27273 7.03906 6.53906 3.77273 10.5852 3.77273ZM27.6648 7.35227C26.8402 7.35227 26.1818 8.01065 26.1818 8.83523C26.1818 9.6598 26.8402 10.3182 27.6648 10.3182C28.4893 10.3182 29.1477 9.6598 29.1477 8.83523C29.1477 8.01065 28.4893 7.35227 27.6648 7.35227ZM18 8.68182C12.5987 8.68182 8.18182 13.0987 8.18182 18.5C8.18182 23.9013 12.5987 28.3182 18 28.3182C23.4013 28.3182 27.8182 23.9013 27.8182 18.5C27.8182 13.0987 23.4013 8.68182 18 8.68182ZM18 11.9545C21.6371 11.9545 24.5455 14.8629 24.5455 18.5C24.5455 22.1371 21.6371 25.0455 18 25.0455C14.3629 25.0455 11.4545 22.1371 11.4545 18.5C11.4545 14.8629 14.3629 11.9545 18 11.9545Z" fill="#0B66A7"/>
<path d="M10.5852 0.5C4.77486 0.5 0 5.26847 0 11.0852V25.9148C0 31.7251 4.76847 36.5 10.5852 36.5H25.4148C31.2251 36.5 36 31.7315 36 25.9148V11.0852C36 5.27486 31.2315 0.5 25.4148 0.5H10.5852ZM10.5852 3.77273H25.4148C29.4609 3.77273 32.7273 7.03906 32.7273 11.0852V25.9148C32.7273 29.9609 29.4609 33.2273 25.4148 33.2273H10.5852C6.53906 33.2273 3.27273 29.9609 3.27273 25.9148V11.0852C3.27273 7.03906 6.53906 3.77273 10.5852 3.77273ZM27.6648 7.35227C26.8402 7.35227 26.1818 8.01065 26.1818 8.83523C26.1818 9.6598 26.8402 10.3182 27.6648 10.3182C28.4893 10.3182 29.1477 9.6598 29.1477 8.83523C29.1477 8.01065 28.4893 7.35227 27.6648 7.35227ZM18 8.68182C12.5987 8.68182 8.18182 13.0987 8.18182 18.5C8.18182 23.9013 12.5987 28.3182 18 28.3182C23.4013 28.3182 27.8182 23.9013 27.8182 18.5C27.8182 13.0987 23.4013 8.68182 18 8.68182ZM18 11.9545C21.6371 11.9545 24.5455 14.8629 24.5455 18.5C24.5455 22.1371 21.6371 25.0455 18 25.0455C14.3629 25.0455 11.4545 22.1371 11.4545 18.5C11.4545 14.8629 14.3629 11.9545 18 11.9545Z" stroke="black"/>
</svg>
